<svg id="Layer_1" data-name="Layer 1" xmlns="http://www.w3.org/2000/svg" width="100mm" height="25.67mm" viewBox="0 0 283.46 72.77">
  <defs>
    <style>
      .cls-1 {
        fill: #ff8614;
      }

      .cls-2 {
        fill: #323a5a;
      }

      .cls-3 {
        fill: #2281e7;
      }
    </style>
  </defs>
  <title>WeLearn_Horizontal</title>
  <g>
    <path class="cls-1" d="M37.83,14.51l-1.1-1.19L34,18.4a6.23,6.23,0,0,1,.61.44c.35.31.68.65,1,1a4,4,0,0,0,.54.55,10.35,10.35,0,0,0,1,.53,4,4,0,0,0-.37-2.33,2.67,2.67,0,0,1,0-2.51C37.12,15.52,37.49,15,37.83,14.51Z" transform="translate(0)"/>
    <path class="cls-1" d="M45.8,4.85a.45.45,0,0,1-.09-.26c0-.59-.45-.73-.84-.95a2.21,2.21,0,0,0-.5-.23c-.67-.18-1.35-.35-2-.52l-.07.17c1.26.93,1.19,2.49,1.81,3.73a12,12,0,0,1-.7-1.62c-.66-1.9-1.74-2.47-3.6-2.18.37.56.69,1.12,1.07,1.62A15.75,15.75,0,0,0,45.17,8.3a2.71,2.71,0,0,0,2.11.6.86.86,0,0,1,.27,0c.45.05.9.14,1.35.15A7.53,7.53,0,0,0,50,9c0-.5.13-1.08-.31-1.48-1.1-1-2.25-1.94-3.38-2.9-.12-.1-.26-.19-.39-.28l-.1.07a2.14,2.14,0,0,0,.26.67,1.33,1.33,0,0,1,.21,1.3A1.79,1.79,0,0,0,45.8,4.85Z" transform="translate(0)"/>
    <path class="cls-1" d="M39.1,1.63a.55.55,0,0,0,.39.29c.91.07,1.83.07,2.74.18a6.38,6.38,0,0,1,1.93.46,5,5,0,0,0,2.47.23c.56,0,1.12.1,1.67.08a8.81,8.81,0,0,0,1.31-.21.48.48,0,0,1,.31,0L48.69,3a2.73,2.73,0,0,0,1.66.72,8.22,8.22,0,0,0,1.54-.23c-.25-.23-3.07-3.08-8.81-2.17A5.34,5.34,0,0,0,38.55.06,15.13,15.13,0,0,0,39.1,1.63Z" transform="translate(0)"/>
    <path class="cls-1" d="M48.73,9.29l1.15.81C50,9.29,49.58,9,48.73,9.29Z" transform="translate(0)"/>
    <path class="cls-1" d="M72.52,24.39s1.14-4.49-4.46-8.85l0,.06S66.19,7.6,57.75,7A6.37,6.37,0,0,0,51.9,3.55h0a2.56,2.56,0,0,1-2.78,0A3.17,3.17,0,0,0,47.57,3c.7,1,1.81,1.08,2.82,1.37a4.24,4.24,0,0,1-3.07-1.25A.42.42,0,0,0,47,3c-.49,0-1,.08-1.43.12,1.58,1.43,3.15,2.91,4.77,4.31A8.2,8.2,0,0,0,54,9.32a8,8,0,0,1-3.86-1.5,11.48,11.48,0,0,1,0,1.33,1.33,1.33,0,0,1-.1.49.56.56,0,0,0,.16.74,5.8,5.8,0,0,0,2.26,1.2l0,.09L51,11.19l0,.11a4,4,0,0,0-.44-.45c-.4-.31-.81-.61-1.24-.88a4.3,4.3,0,0,0-.85-.45,10.25,10.25,0,0,0-1.11-.27l.59.79c-.34-.28-.57-.69-1.16-.69l.34.35a2.69,2.69,0,0,1,.82,1.7.63.63,0,0,0,.25.4,12.85,12.85,0,0,0,4.48,2,10.89,10.89,0,0,1,4.18,2,10,10,0,0,0,3.1,1.68l0,.11c-.62-.27-1.25-.5-1.85-.81a13,13,0,0,1-1.47-.91,11.4,11.4,0,0,0-3.78-1.71,17.25,17.25,0,0,1-4.9-1.93l-.34,1.26.67.24a2.17,2.17,0,0,1,1,.66,1.68,1.68,0,0,0,.93.31c.41.07.84.06,1.25.11a3.19,3.19,0,0,1,.52.15l-2.61-.25c0,.58.13,1.16.7,1.39a8.18,8.18,0,0,0,1.49.33c-.26,0-.63,0-1,0a1.4,1.4,0,0,1-1.37-1.15,1.44,1.44,0,0,0-.69-1,1.37,1.37,0,0,0,.23,1.74A2.39,2.39,0,0,1,49.44,17l-1.28-1.48c-.16.35-.16.35.27,1a.87.87,0,0,1-.51-.87L48.08,14l-.64-.21a3.54,3.54,0,0,0,1.28,3.91,10.14,10.14,0,0,0,3,1.35c.78.26,1.55.57,2.35.79a7.88,7.88,0,0,0,1.36.12c.45,0,.9.11,1.36.13.26,0,.52,0,.77-.05h.68v.1l-1,.07a11.93,11.93,0,0,0,2.87,2L59.33,22a1.69,1.69,0,0,1-.7-.39,4.19,4.19,0,0,0-.73-.53,3.36,3.36,0,0,0-1.69-.76H56l.32.42a1.36,1.36,0,0,0-1.44-.36,2,2,0,0,1,.29,2.49c.27-1.67,0-2.26-1.55-2.87-1-.38-2-.62-3-.92a6.81,6.81,0,0,1-3-1.48,9.92,9.92,0,0,1-1-1.5s0-.08,0-.13l-.23.26-.27-.84-.15,0c-.25.38.31,1-.37,1.3a.76.76,0,0,0,.12-1,.53.53,0,0,1,.12-.5c.71-.46.67-1.2.79-1.91a3.8,3.8,0,0,0-2.12-4.12c-.94-.58-1.92-1.1-2.85-1.69A21.76,21.76,0,0,1,38,4.58l-.33-.31a5.85,5.85,0,0,0-.11.82q0,1.36.08,2.72a.42.42,0,0,0,.22.28c.51.27,1,.5,1.55.78a2.76,2.76,0,0,1,.79.58,2.37,2.37,0,0,0,1.08.67c.46.17.9.38,1.3.55-.19.29.14.41.12.67L42,10.43l-.16.14.19.57c-.26-.53-.54-1-1.23-.93.26.77.53,1.57.79,2.37A5.08,5.08,0,0,0,43,15.05l-.1.09-1.27-1.45-.21.3c.27-.46,0-.86-.13-1.27-.24-.63-.46-1.25-.71-1.93l-.32.33c.32-.57,0-.85-.28-1.11a9.91,9.91,0,0,0-.81-.66L39,11.22l-.18,0C39.2,10,39.13,9,37.61,8.72c-.11.73-.24,1.49-.33,2.25a.55.55,0,0,0,.19.35,15.94,15.94,0,0,1,3.08,4.22c.36.77.66,1.57,1,2.35.75.07,1.54.1,2.32.21a7.19,7.19,0,0,1,3.73,1.56,1.71,1.71,0,0,0,.76.25c.51.1,1,.17,1.55.24.19,0,.39,0,.59,0a1.17,1.17,0,0,1,.56.15h-.88l1.46,1.38,0,.06a2,2,0,0,1-.28-.17c-.3-.26-.57-.55-.89-.78s-.73-.43-1.09-.63l-.08.1.06.14-1.24-.31a9,9,0,0,0,5.57,4.42l0,.09c-.54-.18-1.08-.34-1.6-.55a9.55,9.55,0,0,1-4-3,6.16,6.16,0,0,0-4.18-2.21l-.7-.08-.22,0a3.56,3.56,0,0,0,.31.21A1.37,1.37,0,0,1,44,20.08c.05.45.15.9.2,1.36-.39-.65-.17-1.58-.92-2.12l-.09.31a1.19,1.19,0,0,0-1.46-.9c.13.91.25,1.78.41,2.64a.48.48,0,0,0,.31.28,11.15,11.15,0,0,1,1.7.45,3.94,3.94,0,0,0,1.6.44c.15,0,.29.15.44.23v0L45,22.57l-.06.1c.79.87,1.24,2,2.26,2.72l-1-.67a4.2,4.2,0,0,0-2.52-2.36l0,.08h0L42.19,22c.13.43.2.76.31,1.07a4.15,4.15,0,0,0,2.2,2.36c.87.43,1.75.85,2.63,1.25a2.38,2.38,0,0,0,.65.08c.5.06,1,.15,1.51.19a3.35,3.35,0,0,0,.74,0c.42-.05.82-.08,1.08.19L50,27l0,.14,2.74,2.05-.77-.31,0,.18a5.12,5.12,0,0,0-3.21-1.95l.44.65L48.23,27l-.07.09a12.51,12.51,0,0,1,.84,1,2.13,2.13,0,0,1,.41.88,4.11,4.11,0,0,0,.91,1.62.39.39,0,0,0,.33.09c.66-.12,1.3-.3,2-.39a1.57,1.57,0,0,1,.81.2l-1-.1,0,.11,1.75.86,0,.05c-.41-.16-.83-.29-1.22-.48a2.49,2.49,0,0,0-2.19,0l0,.13c.32.11.63.23,1,.32a3.74,3.74,0,0,0,.59,0,1.49,1.49,0,0,1,1.59,1.39c.08.32.21.63.29,1-.11-.22-.23-.44-.33-.67a5.45,5.45,0,0,0-.41-1A1.61,1.61,0,0,0,52,31.65c-.2,0-.39,0-.59,0L52,33.54l-.09,0-.22-.68a3.68,3.68,0,0,0-.28-.81,2.5,2.5,0,0,0-.56-.49c-.26-.21-.53-.41-.76-.65a5.31,5.31,0,0,1-.47-.68c-.29,1.23-.61,2.38-.81,3.54a1.86,1.86,0,0,0,1.16,2.08l.35.18s0,0,0,0a2.06,2.06,0,0,1-1.83-2.4c.1-.66.26-1.31.39-2a3.79,3.79,0,0,0-.54-3.34,13.73,13.73,0,0,0-1.06-1.06,10.89,10.89,0,0,0-.87,1.25,1.24,1.24,0,0,0,0,.74c0,.16.17.29.18.48L46,28.91c-.11.32-.21.62-.32.91s.07.59.3.83l-.09,0-.19-.16a5.08,5.08,0,0,0,.07.59,11.84,11.84,0,0,1,.44,1.75A4.44,4.44,0,0,1,46,34.27c.32-1.5-.54-2.79-.7-4.24-.34.26-.65.45-.45.93a.77.77,0,0,1-.15.58v-.83c-.38.38-.12,1-.54,1.27a6.57,6.57,0,0,1,.16-.94,1.7,1.7,0,0,1,.39-.69,2,2,0,0,0,.7-1.14,2.35,2.35,0,0,1,.46-.81c.29-.43.59-.85,1-1.38L43.61,25.9a8,8,0,0,1,0,1,17.79,17.79,0,0,1-.46,2.79,7.46,7.46,0,0,0-.16,4,5.33,5.33,0,0,1-.16,3.11,6.34,6.34,0,0,0,0-2.63c-.1-.49-.22-1-.33-1.46a4.86,4.86,0,0,1,.14-2.49A8.17,8.17,0,0,0,43,25.91a.6.6,0,0,0-.16-.33c-.45-.36-.92-.7-1.38-1,0,.15-.06.38-.12.61s-.06.32-.16.39a1.34,1.34,0,0,0-.48,1.16l-.09-.75c-.23.08-.45.14-.66.23a1,1,0,0,0-.7,1.36,2.15,2.15,0,0,1,0,.79c-.05-.29-.1-.57-.16-.86a1,1,0,0,1,.66-1.41c.26-.13.53-.24.77-.4a2.43,2.43,0,0,0,.38-.39c-1.12-.26-1.76.41-2.41,1l.84-1-.51.09,0-.11L41,24.93a3.46,3.46,0,0,0,.06-1.65,17.06,17.06,0,0,1-.36-2.09,14.27,14.27,0,0,0-2.29-5.86l-.16-.22a.2.2,0,0,0-.06,0,3.2,3.2,0,0,0-1,3.43,5.7,5.7,0,0,1,.22,2.3,4.38,4.38,0,0,0,.18,1.12l-.29-.47c-.29.28-.09.47.08.69l-.27-.18-.16.18s0,0,0-.06a3.92,3.92,0,0,1-.1-.74c0-.59-.44-.68-.89-.89.42,1.6.06,3.29,1,4.74l-.12.05-.69-1.29-.56.41c.22-.27.56-.46.5-.88-.09-.62-.16-1.25-.27-1.87,0-.19-.23-.36-.24-.55a1.65,1.65,0,0,0-.85-1.44l-.6,1.61-.1,0a5.09,5.09,0,0,0,.33-.86,1.6,1.6,0,0,0,0-.88c-.11-.25-.4-.43-.63-.66-.27.38-.46.69-.7,1a1.3,1.3,0,0,0-.31,1A5.74,5.74,0,0,0,35,24.82c.5.57,1.05,1.11,1.5,1.72s.91,1.44,1.36,2.17a.28.28,0,0,1,0,.23c-.14-.25-.27-.51-.42-.76a12.81,12.81,0,0,0-3-3.43A7,7,0,0,1,32,21.21s0,0-.07-.09a6.32,6.32,0,0,0-1.13,2.32c0,.07.08.2.16.26.41.32.82.64,1.25.93a5.22,5.22,0,0,0,.57.27c.2.1.38.22.57.34l-.07.1L33,25.13l-.05.11-.54-.39-.1.07.75,2.61a2.32,2.32,0,0,1-.58-1.23,3.88,3.88,0,0,0-.19-.68c-.22-.47-.34-1-.91-1.26l-.07.62c-.05-.43-.05-.86-.65-1a5,5,0,0,0-.08.5c0,.38,0,.76,0,1.14a1,1,0,0,0,.54,1,3.46,3.46,0,0,1,1,1.15,2.44,2.44,0,0,0,1,1c.59.27,1.18.56,1.77.82a3.84,3.84,0,0,0,.42.1A3.54,3.54,0,0,1,34,29.53a1.74,1.74,0,0,0-1.64.14,2.21,2.21,0,0,0,2.08,1.16c1-.08,1.39.28,1.56,1.06-.22-.23-.47-.63-.83-.8A3.89,3.89,0,0,0,33.92,31a5.28,5.28,0,0,0,.58,1.22,2.91,2.91,0,0,0,1,.65,1.68,1.68,0,0,0,.7.05,1.57,1.57,0,0,1,1.25.43,5.22,5.22,0,0,1,.42.34l-1.11-.6-.07.08.3.39c-.38-.35-.75-.67-1.36-.44,1.2,1.11,1.88,2.72,3.47,3.43l-.06.1-1.45-.86,0,.24,0-.06a2.9,2.9,0,0,0-.31-.65c-.46-.56-.95-1.08-1.43-1.62l-.1,0,.13.58h0a2.48,2.48,0,0,0-.18-.6,1.41,1.41,0,0,0-.48-.51,8.55,8.55,0,0,0-1-.42l.45,1.63-.14.1c0-1.57-.94-2-2.27-2,.12.5.28,1,.36,1.56a1.8,1.8,0,0,0,.86,1.35c.61.38,1.25.72,1.88,1.06s1.48.77,2.17,1.23l-4.58-2.17c0,.88,0,1.86,0,2.84a.47.47,0,0,0,.13.3c.32.32.61.66,1.19.48a1.19,1.19,0,0,1,1.19.46,1.83,1.83,0,0,0-1.65-.23c.27.63.61,1.12,1.35,1.17,1,.06,1.12.52,1.16,1.28-.43-1.09-.54-1.18-1.53-1.15l.17.74a1.31,1.31,0,0,0-.75-.95c-.17-.06-.25-.32-.38-.48L32.85,39l-.17.07,0,.62a1.31,1.31,0,0,0-.22.25c-.36.77-.71,1.55-1.07,2.32a.83.83,0,0,1-.21.26,9.19,9.19,0,0,0,1-5.89,6.77,6.77,0,0,0-1,.95c-.15.2-.09.57-.08.86a1.52,1.52,0,0,0,.18.46l-.1,0-.42-1.11c-.32.43-.83.75-.61,1.43,0,.07-.17.19-.17.29a16.33,16.33,0,0,0-.09,1.81,1.92,1.92,0,0,0,.29.67l-.31-.25-.57,1.3-.12,0c.8-1.36.3-2.85.55-4.27-.66.11-.76.58-.74,1.14l-.1-.05.05-.55-.09-.05-.34.5-.09-.05a4.68,4.68,0,0,1,.41-.63,1.63,1.63,0,0,1,.46-.29,1.74,1.74,0,0,0,.69-.71,3.8,3.8,0,0,1,.84-.92c1.36-1.15,1.38-1.15.93-2.86-.24-.91-.55-1.8-.82-2.71h-.14c0,.12-.13.3-.08.36a1.19,1.19,0,0,1,.11,1.37c0,.06,0,.13-.08.18a3.41,3.41,0,0,0,.11-.79,3.39,3.39,0,0,0-.28-.78,3.84,3.84,0,0,0-.74,1.79c0,.22-.06.44-.11.66a.72.72,0,0,1-.18.39c-.57.44-.37,1-.25,1.54a3.7,3.7,0,0,1,0,1l-.35-2.21a7.56,7.56,0,0,0-.87.37,1.05,1.05,0,0,0-.55,1.33,3.93,3.93,0,0,1,.08,1c-.07-.36-.14-.73-.23-1.08a1,1,0,0,1,.53-1.33,5.11,5.11,0,0,1,.59-.31,1.37,1.37,0,0,0,.89-1.24c0-.25.06-.49.1-.77a2,2,0,0,0-1.3.27,9.81,9.81,0,0,0-1,.9,2.07,2.07,0,0,1,1.95-1.37c.32,0,.43-.14.54-.42A10.21,10.21,0,0,1,30.44,31a.54.54,0,0,0,.08-.53c-.22-.63-.42-1.26-.65-2l-.88.79,0,.12-.07-.09,0,0,0-.13c-.83.58-.49,1.65-1,2.34.11-.57.22-1.13.32-1.7,0-.06-.06-.13-.09-.19.37-.32.72-.66,1.11-1s.51-.36.36-1c-.19-.81-.36-1.63-.53-2.43-.61.59-1.23,1.19-1.84,1.79a.29.29,0,0,0,0,.27,4.94,4.94,0,0,1,.46,2.39l.44-.08a1.16,1.16,0,0,0-.59.72c-.21.62-.58,1.18-.79,1.8a17.32,17.32,0,0,0-.43,1.8A6.24,6.24,0,0,1,27,31.12a3.8,3.8,0,0,0-.12-3.56,3.21,3.21,0,0,0-.63,1.75c-.05.58-.07,1.16-.17,1.72a2.56,2.56,0,0,1-1.38,1.87c-.64.34-1.28.68-2,1a4.85,4.85,0,0,1,.52-.42c.31-.19.64-.36,1-.53a3,3,0,0,0,1.65-2.48c0-.5,0-1,0-1.53L22.4,31a3.77,3.77,0,0,1,1.28-1c.52-.28,1-.59,1.52-.9A2,2,0,0,0,26,27.55c-.43.27-.82.51-1.19.76a2.12,2.12,0,0,1-1.19.45c-.21,0-.43.22-.62.37a1.59,1.59,0,0,1-.4.3l.63-.71a1.88,1.88,0,0,0-2.55.45,1.31,1.31,0,0,1,1.17-.93,6.92,6.92,0,0,1,1.09.11,1.77,1.77,0,0,0,1.19-.09,2.27,2.27,0,0,0-2-.62,7.91,7.91,0,0,1-1.39.06l2-.28,0-.11-1-.19c1.09-.16,1.75.65,2.69,1l.78-.53c.41-.27.41-.27.8-.06.81-.87,1.6-1.74,2.42-2.59A2.29,2.29,0,0,0,29.13,23l-.79.54A2.13,2.13,0,0,1,27,24a.64.64,0,0,0-.42.16c-.31.3-.59.63-.88,1a3.45,3.45,0,0,1-.69.66l1.52-1.85c-1.46-.75-2.57-.29-3.37,1.17l-.1-.15a14.09,14.09,0,0,1,1.13-1.3,1.65,1.65,0,0,1,1.47-.24,3.52,3.52,0,0,0,1.75.11l.22-.09a2.57,2.57,0,0,0-2.27-.74,4.23,4.23,0,0,1-1.73.05L26,22.39l0-.12a4.58,4.58,0,0,0-.77-.19c-.27,0-.54,0-.82,0a4.72,4.72,0,0,1,1.45,0,8.8,8.8,0,0,1,1.79,1c.22.14.36.16.54,0l0,0a3.21,3.21,0,0,0,1.41-1.67,18.67,18.67,0,0,1,1.67-2.61c.34-.51.69-1,1.09-1.6a11.68,11.68,0,0,0-1.63.31,1.52,1.52,0,0,0-.88,1.22c0,.19-.07.38-.11.58l-.13,0,.5-1.72c-.69.27-1.63.28-1.81,1.48l0-.56L26.9,20.05a2,2,0,0,1-.24.26,1,1,0,0,0-.31,1.13.68.68,0,0,1,0,.35l-.25-.87-1.57,1-.07-.11c1.77-.85,2.56-2.65,4-4-.56,0-1-.11-1.36.42a2,2,0,0,1-.93.52L27.25,18l-.09-.16a8,8,0,0,0-.72.37,1.44,1.44,0,0,1-1.47.27,1.76,1.76,0,0,0,1.6-.53,1.79,1.79,0,0,1,.83-.3c.24,0,.5,0,.75,0a3.11,3.11,0,0,0,1-.28,7.11,7.11,0,0,1,2.28-.57l.58-.1a1.63,1.63,0,0,0,1.35-1,15.64,15.64,0,0,0,1.63-4.46c0-.15,0-.31.06-.55-.48.31-.91.56-1.31.85s-.31.64-.28,1a1,1,0,0,1-1,1.26c.21-.19.55-.37.67-.65a2.89,2.89,0,0,0,0-1l-.86.34.18-.11.17-.12c.15-.1.38-.19.42-.32.12-.45.48-.63.81-.86s.7-.51,1-.78a.47.47,0,0,0,.18-.28,11.4,11.4,0,0,0-.2-2.87A11.51,11.51,0,0,0,31.7,8.68c.08.22.16.42.23.61a2.83,2.83,0,0,1-.59,3.14,3.13,3.13,0,0,0-.2.24l.13.07c-.77.64-.91,1-1.06,2.85a4.14,4.14,0,0,1,.66-3,7.18,7.18,0,0,0,.59-1A2.77,2.77,0,0,0,31.22,9a14.21,14.21,0,0,0-3.46,3.79l-.33.54a1,1,0,0,0,.11,1.15,1.28,1.28,0,0,1,.27.51l-.47-.58-.6,2h-.06l.49-2.27-.15,0c-.11.2-.22.4-.32.6A4.11,4.11,0,0,1,24,17.2a.55.55,0,0,0-.28.26,6.59,6.59,0,0,0-1,3.21,6,6,0,0,1-1.21,3.6c-.29.38-.47.85-.77,1.24a9,9,0,0,1,.39-.89,8.25,8.25,0,0,0,1.27-3.36c.07-.85.18-1.7.33-2.53a10.18,10.18,0,0,1,.47-1.4c-.61,0-1.19.08-1.78.15a.42.42,0,0,0-.27.26,5.67,5.67,0,0,0-.22,1A2.74,2.74,0,0,1,20.49,20a1.59,1.59,0,0,0-.11.64,5.7,5.7,0,0,1-.09.65.4.4,0,0,1-.3.24l.24-.46-.15,0,.16-.72-.1,0c-1,.86-2.36,1.32-3.2,2.44l-.08-.06.66-.85-.38-.08c1.15-.11,3.13-1.74,3.2-2.62l-.46.17c.74-.33.56-1.13.77-1.73a3.9,3.9,0,0,0-3.61,2.81c-.16.66-.22,1.35-.33,2a2.31,2.31,0,0,1-1.23,2.05,9.26,9.26,0,0,1-1.12.32l0-.1.32-.09a2.07,2.07,0,0,0,1.75-2c.09-.81.16-1.62.25-2.43a7.16,7.16,0,0,1,.18-.78c-.65.11-1.29.18-1.9.34a1.34,1.34,0,0,0-.88,1c-.1.37-.17.75-.25,1.12l-.11,0,.54-2.07-1.12.46a1,1,0,0,0-.7.94v-.46l-1,1.12c-.18.21-.35.43-.54.63-.38.38-.72.75-.39,1.38l-.13,0-.13-.59-1.72,1-.07-.11c1.53-.67,2.35-2.06,3.36-3.24.22-.26.45-.5.68-.75a1.25,1.25,0,0,0-1.51.63l-.06-.09.38-.47-.07-.09-1.28.69c1-.79.81-.86,2.15-.87a3.56,3.56,0,0,0,1.2-.31,21.32,21.32,0,0,1,2.32-.58c.48-.12,1-.23,1.45-.36a1.79,1.79,0,0,0,.41-.25l0-.1c-.39,0-.77,0-1.16,0A2.92,2.92,0,0,1,15,18.11a2.25,2.25,0,0,0-1,.05,2.79,2.79,0,0,0-.44.12l0-.1,1.28-.31a1.68,1.68,0,0,0-1.1-1,6.09,6.09,0,0,0-1.39,0,1.74,1.74,0,0,1,2.23.24,10.11,10.11,0,0,0,.85.69,1.58,1.58,0,0,0,.44.14c-.06-1.14-.89-1.47-1.74-1.78l.05-.09,1.25.43.06,0-.55-.61,0-.05a2.45,2.45,0,0,1,.54.53c.27.51.47,1,.73,1.63a9.49,9.49,0,0,0,2.44-.41,16.2,16.2,0,0,1,2.68-.76c.52-.13,1.06-.19,1.58-.34a4.49,4.49,0,0,0,2.78-2.37c-.81.1-1.64-.43-2.34.12l-.25.25a1.52,1.52,0,0,1,.25-.25l.3-.3a2.31,2.31,0,0,0-1.36.14,11.73,11.73,0,0,0-1.09.52c-.38.2-.76.42-1.14.63a4,4,0,0,1-1.62.47c.44-.17.88-.31,1.3-.51s.81-.48,1.22-.72l1.25-.72c-.42-.32-.8-.13-1.2,0l.43-.27h-.51v-.13a2.18,2.18,0,0,1,.6,0,4.5,4.5,0,0,0,1.73.14,9.62,9.62,0,0,1,2.07.16.71.71,0,0,0,.87-.5c.25-.59.6-1.14,1-1.81-.78-.11-1.52-.23-2.27-.32-.11,0-.25.13-.36.21-.33.25-.65.52-1,.76-.08.06-.23,0-.35,0l-1.83.15c.87-.31,1.77-.09,2.54-.62l-.19-.07.64-.33,0-.16c-.41.05-.83.1-1.24.17a7.53,7.53,0,0,0-2.78,1.34,9.41,9.41,0,0,1-5,1.45l-.19,0,.84-.22.07,0,.07,0h.14c.87-.27,1.77-.5,2.61-.85a11.85,11.85,0,0,0,1.64-1l-.06-.11c-.34,0-.68,0-1-.07s-.7-.1-1.05-.13a1,1,0,0,0-.38.07,2.84,2.84,0,0,0-1.25,1.09l.92-1.3c-.35,0-.76,0-1.17.11s-.85.08-1,.59l0-.3-1.27.68c-.3.16-.59.36-.9.49a1.51,1.51,0,0,0-1,1.12l.1-.6-2.14.48,0-.13c2.16-.2,3.68-1.74,5.61-2.62-.5-.17-.9-.4-1.35,0a1,1,0,0,1-.6.15l.73-.34,0-.14-.86.17-1,.14a10.68,10.68,0,0,1,1.36-.42,2.5,2.5,0,0,1,1,.06,4.79,4.79,0,0,0,1.81.13,13.83,13.83,0,0,1,2.27.13c.66,0,1.31,0,2,.05a.8.8,0,0,0,.37-.11,6.64,6.64,0,0,1,3.83-.65,14.55,14.55,0,0,1,1.83.3.38.38,0,0,0,.48-.18,17.86,17.86,0,0,1,4-4.31c.63-.47,1.33-.85,2-1.27.12-.08.27-.19.3-.31.14-.56.23-1.12.35-1.7-1.25.23-2.47.37-3.64.69a2.09,2.09,0,0,0-1.3,1.58c-.19.64-.31,1.3-.47,2a1.45,1.45,0,0,1-.29.56c.08-.25.18-.5.23-.76.09-.44.17-.88.22-1.32a3.64,3.64,0,0,1,.87-1.95A5.57,5.57,0,0,0,27,5c-.06,0-.15.13-.14.17.13.49-.17.86-.32,1.27a2.16,2.16,0,0,0-.07.42l-.1,0,.4-1.46-.15-.08c-.39.41-.78.83-1.18,1.24-.93,1-1.85,1.93-2.82,2.86A5.83,5.83,0,0,1,19.53,11s.05-.06.08-.07A8.93,8.93,0,0,0,23.83,7.8c1-1.2,2-2.38,2.94-3.55H25.42a.32.32,0,0,0-.22.13,3.39,3.39,0,0,1-2.29,1.41l-.15.05a.17.17,0,0,1-.12,0c.87-.32,1.79-.56,2.21-1.57-.33.15-.66.28-1,.45s-.65.4-1,.57a2,2,0,0,1-1.46.11,7,7,0,0,1-1-.32l1,.21a2.6,2.6,0,0,0,2.45-.84L21.9,4V4c.36.07.71.14,1.07.23a2.2,2.2,0,0,0,1.53-.05A2.42,2.42,0,0,1,25.36,4c.34,0,.68,0,1,0A3,3,0,0,0,28,3.51a4.7,4.7,0,0,1,2.24-.7,8.82,8.82,0,0,0,2.82-1.06.59.59,0,0,0,.25-.38c.1-.44.21-.88.32-1.31a6.62,6.62,0,0,0-3.82.8,3.89,3.89,0,0,0-4,.6s-4-.7-5.95,2.44v0s-3.76,0-4.49,3.51v0A5.13,5.13,0,0,0,9.9,11a5.56,5.56,0,0,0-3.35,5.44S3,17.5,3.35,22.3c0,0-2.06,1.17-1.8,4.4A3.59,3.59,0,0,0,.48,31.5a4.09,4.09,0,0,0,2.75,5.72l-.06,0a7.77,7.77,0,0,0-1.68,6.61,7.59,7.59,0,0,0,4.27,5.34S6,58.42,17.38,56a69,69,0,0,1-.59,16.18s4.6.59,4.6.59a35.12,35.12,0,0,1,3.85-17.32A5.4,5.4,0,0,0,28,51.68s4.81-1.14,5.76-5.12l0,.06s4.14,6,13.5,3.83S55.76,39.7,55.76,39.7s9.58,7.18,16.57-.76S72.52,24.39,72.52,24.39Z" transform="translate(0)"/>
    <path class="cls-1" d="M33.46,29.2a3.34,3.34,0,0,1-1.76-1.66,4.46,4.46,0,0,0-.92-.84l-.13.1c.13.61.25,1.23.38,1.84,0,.06,0,.15.08.17.56.22,1,.94,1.74.49A1.82,1.82,0,0,1,33.46,29.2Z" transform="translate(0)"/>
    <path class="cls-1" d="M46.05,15.23l.4.54.12.17-.09-.63-.06-.42Z" transform="translate(0)"/>
    <path class="cls-1" d="M31.65,30.91c.07.27.14.53.24.79a.39.39,0,0,0,.21.23c.76.16,1.52.3,2.37.47a7.87,7.87,0,0,0-.42-.88c-.11-.18-.28-.4-.46-.44a2.07,2.07,0,0,1-1-.63c-.4-.39-.84-.74-1.26-1.11l-.13.09Z" transform="translate(0)"/>
  </g>
  <g>
    <path class="cls-2" d="M134.84,17.19l-9.68,34.4H116.7l-6-23.43h-.09l-6,23.43H96l-9.68-34.4h8.24l6.18,24.68h.09l5.73-24.68H115l5.73,24.41h.09l6-24.41Z" transform="translate(0)"/>
    <path class="cls-2" d="M157,47.83c-2.15,2.55-5.2,4.26-10.17,4.26C138.29,52.09,134,47,134,39.64S138.24,27,146.17,27s11.65,5.15,11.65,11.83a17.92,17.92,0,0,1-.18,2.82H141.42c.4,3.09,1.93,5.06,5.6,5.06A6.49,6.49,0,0,0,152.44,44ZM150.6,37.26c-.27-3-1.43-4.88-4.48-4.88s-4.39,1.88-4.7,4.88Z" transform="translate(0)"/>
    <path class="cls-2" d="M162.12,17.19H170V45.41h16V51.6H162.12Z" transform="translate(0)"/>
    <path class="cls-2" d="M210.72,47.83c-2.15,2.55-5.2,4.26-10.17,4.26-8.51,0-12.81-5.06-12.81-12.45S192,27,199.92,27s11.65,5.15,11.65,11.83a17.92,17.92,0,0,1-.18,2.82H195.17c.4,3.09,1.93,5.06,5.6,5.06A6.49,6.49,0,0,0,206.19,44Zm-6.36-10.57c-.27-3-1.43-4.88-4.48-4.88s-4.39,1.88-4.7,4.88Z" transform="translate(0)"/>
    <path class="cls-2" d="M229.53,51.6l-.18-3.31h-.09a7.8,7.8,0,0,1-7,3.81c-4.75,0-7.79-3.09-7.79-7.35A6.22,6.22,0,0,1,219,38.43c2.51-.85,6.09-1.07,10-1.21V35.78c0-2-1.39-3.36-3.81-3.36a4.38,4.38,0,0,0-4.43,3l-5.55-2.78c1.79-3.76,5-5.6,10.39-5.6,7.21,0,10.75,3.27,10.75,8.56v16Zm-.49-9V41.38c-1.39.09-3,.22-4.48.45s-2.82.76-2.82,2.51c0,1.43,1.07,2.6,3.14,2.6A4,4,0,0,0,229,42.64Z" transform="translate(0)"/>
    <path class="cls-2" d="M241.8,27.54h6.9l.18,3.81H249c1.34-2.6,3.32-4.26,6-4.26a7.16,7.16,0,0,1,2.28.4v6.18A15.8,15.8,0,0,0,255,33.5c-3.72,0-5.73,2.24-5.73,4.88V51.6H241.8Z" transform="translate(0)"/>
    <path class="cls-2" d="M260.75,27.54h6.9l.13,3.31h.09A8.2,8.2,0,0,1,275.08,27c5.06,0,8.38,3.27,8.38,8.2V51.6H276V36.05a3.26,3.26,0,0,0-3.49-3.45,4.09,4.09,0,0,0-4.35,4.35V51.6h-7.44Z" transform="translate(0)"/>
  </g>
  <g>
    <path class="cls-3" d="M165.46,61.51c1.77,0,3.11,1,3.11,2.78a2.84,2.84,0,0,1-3.14,2.81h-2.24v3h-1.14V61.51Zm0,4.6a1.81,1.81,0,1,0,0-3.61h-2.32v3.61Z" transform="translate(0)"/>
    <path class="cls-3" d="M174.54,69.29a2.89,2.89,0,0,1-2.28,1A3.16,3.16,0,0,1,172.1,64a2.65,2.65,0,0,1,2.67,2.95,5.31,5.31,0,0,1,0,.62h-4.37a1.93,1.93,0,0,0,3.43,1.08Zm-.83-2.63c-.07-1-.56-1.78-1.63-1.78a1.73,1.73,0,0,0-1.72,1.78Z" transform="translate(0)"/>
    <path class="cls-3" d="M176.11,64.11h1l0,.91h0a1.72,1.72,0,0,1,1.55-1,1.54,1.54,0,0,1,.51.08v1a2,2,0,0,0-.56-.08,1.41,1.41,0,0,0-1.51,1.45v3.67h-1.07Z" transform="translate(0)"/>
    <path class="cls-3" d="M179.73,69.36l.65-.73a2.7,2.7,0,0,0,1.91.74c1,0,1.42-.35,1.42-.87s-.61-.71-1.62-.92-2.15-.6-2.15-1.77.81-1.83,2.39-1.83a3.31,3.31,0,0,1,2.35.87l-.64.73a2.5,2.5,0,0,0-1.74-.7c-.84,0-1.27.36-1.27.82s.54.69,1.59.91,2.18.56,2.18,1.77-.88,1.89-2.53,1.89A3.52,3.52,0,0,1,179.73,69.36Z" transform="translate(0)"/>
    <path class="cls-3" d="M185.7,67.13a3,3,0,1,1,3,3.14A2.91,2.91,0,0,1,185.7,67.13Zm1.08,0c0,1.19.63,2.23,1.88,2.23a2,2,0,0,0,1.89-2.23c0-1.2-.64-2.24-1.89-2.24S186.78,65.93,186.78,67.13Z" transform="translate(0)"/>
    <path class="cls-3" d="M193,64.11h1l0,.89h0a2.22,2.22,0,0,1,2-1,2,2,0,0,1,2.13,2.12v4.05h-1.07V66.31a1.3,1.3,0,0,0-1.37-1.41,1.57,1.57,0,0,0-1.65,1.64v3.6H193Z" transform="translate(0)"/>
    <path class="cls-3" d="M203.41,70.15l0-.88h0a2,2,0,0,1-1.82,1,1.79,1.79,0,0,1-1.95-1.82,1.53,1.53,0,0,1,1.17-1.56,10.83,10.83,0,0,1,2.63-.29v-.54a1.18,1.18,0,0,0-1.34-1.17,1.33,1.33,0,0,0-1.4.91l-.89-.43A2.29,2.29,0,0,1,202.1,64c1.44,0,2.36.75,2.36,2.07v4.1Zm0-2.39v-.35c-.41,0-1,.06-1.54.12-.69.09-1.19.28-1.19.9s.43.93,1.13.93A1.57,1.57,0,0,0,203.4,67.76Z" transform="translate(0)"/>
    <path class="cls-3" d="M206.22,70.15V61.51h1.07v8.64Z" transform="translate(0)"/>
    <path class="cls-3" d="M211.91,61.51h2.9a4.32,4.32,0,0,1,.1,8.64h-3Zm2.94,7.65c1.88,0,3.16-1.09,3.16-3.32a3,3,0,0,0-3.26-3.34H213v6.66Z" transform="translate(0)"/>
    <path class="cls-3" d="M225.44,69.29a2.89,2.89,0,0,1-2.28,1A3.16,3.16,0,0,1,223,64a2.65,2.65,0,0,1,2.67,2.95,5.48,5.48,0,0,1,0,.62h-4.37a1.93,1.93,0,0,0,3.43,1.08Zm-.83-2.63c-.07-1-.56-1.78-1.63-1.78a1.73,1.73,0,0,0-1.72,1.78Z" transform="translate(0)"/>
    <path class="cls-3" d="M232.07,64.11l-2.39,6h-1.14l-2.37-6h1.17l1.78,4.82h0l1.8-4.82Z" transform="translate(0)"/>
    <path class="cls-3" d="M237.89,69.29a2.89,2.89,0,0,1-2.28,1,3.16,3.16,0,0,1-.16-6.29,2.65,2.65,0,0,1,2.67,2.95,5.31,5.31,0,0,1,0,.62h-4.37a1.93,1.93,0,0,0,3.43,1.08Zm-.83-2.63c-.07-1-.56-1.78-1.63-1.78a1.73,1.73,0,0,0-1.72,1.78Z" transform="translate(0)"/>
    <path class="cls-3" d="M239.45,70.15V61.51h1.07v8.64Z" transform="translate(0)"/>
    <path class="cls-3" d="M241.9,67.13a3,3,0,1,1,3,3.14A2.91,2.91,0,0,1,241.9,67.13Zm1.08,0c0,1.19.63,2.23,1.88,2.23a2,2,0,0,0,1.89-2.23c0-1.2-.64-2.24-1.89-2.24S243,65.93,243,67.13Z" transform="translate(0)"/>
    <path class="cls-3" d="M250.31,69.27h0v2.94h-1.07v-8.1h1l0,1h0a2.42,2.42,0,0,1,2-1.08C254,64,255,65.34,255,67.1s-1,3.17-2.72,3.17A2.31,2.31,0,0,1,250.31,69.27Zm3.63-2.15c0-1.14-.57-2.21-1.86-2.21s-1.83,1-1.83,2.24.65,2.18,1.82,2.18S253.95,68.33,253.95,67.12Z" transform="translate(0)"/>
    <path class="cls-3" d="M257.53,64.92A2,2,0,0,1,259.3,64a1.9,1.9,0,0,1,1.82,1,2.18,2.18,0,0,1,2-1,1.85,1.85,0,0,1,2,1.91v4.25H264v-4a1.15,1.15,0,0,0-1.25-1.24,1.39,1.39,0,0,0-1.47,1.44v3.8h-1.07v-4A1.15,1.15,0,0,0,259,64.9a1.39,1.39,0,0,0-1.49,1.44v3.8h-1.07v-6h1l0,.81Z" transform="translate(0)"/>
    <path class="cls-3" d="M271.73,69.29a2.89,2.89,0,0,1-2.28,1,3.16,3.16,0,0,1-.16-6.29A2.65,2.65,0,0,1,272,66.93a5.31,5.31,0,0,1,0,.62h-4.37A1.93,1.93,0,0,0,271,68.63Zm-.83-2.63c-.07-1-.56-1.78-1.63-1.78a1.73,1.73,0,0,0-1.72,1.78Z" transform="translate(0)"/>
    <path class="cls-3" d="M273.29,64.11h1l0,.89h0a2.22,2.22,0,0,1,2-1,2,2,0,0,1,2.13,2.12v4.05h-1.07V66.31A1.3,1.3,0,0,0,276,64.9a1.57,1.57,0,0,0-1.65,1.64v3.6h-1.07Z" transform="translate(0)"/>
    <path class="cls-3" d="M279.38,64.11h1.2V62.19h1.07v1.91h1.45V65h-1.45V68.3c0,.72.19,1,1,1a2.48,2.48,0,0,0,.47,0v.87a3.54,3.54,0,0,1-.84.1,1.51,1.51,0,0,1-1.68-1.7V65h-1.2Z" transform="translate(0)"/>
  </g>
</svg>
