<svg id="Layer_1" data-name="Layer 1" xmlns="http://www.w3.org/2000/svg" width="99.84mm" height="99.84mm" viewBox="0 0 283.01 283.01">
  <defs>
    <style>
      .cls-1 {
        fill: #323a5a;
      }

      .cls-2 {
        fill: #fff;
      }

      .cls-3 {
        fill: #ff8614;
      }

      .cls-4 {
        fill: #2281e7;
      }
    </style>
  </defs>
  <title>WeLearn_Round</title>
  <circle class="cls-1" cx="141.51" cy="141.51" r="141.51"/>
  <circle class="cls-2" cx="141.51" cy="141.51" r="98.84"/>
  <g>
    <path class="cls-2" d="M90,17.88l7.49,27.18-5.72,3.45L78.21,35.12l-.06,0,5.5,18.27-5.84,3.53L57.25,37.66l5.57-3.36L77.06,48.45l.06,0-6.19-19L76.64,26,90.47,40.1l.06,0-5.87-19Z" transform="translate(-0.68)"/>
    <path class="cls-2" d="M119.17,35c-1,2.42-3,4.4-6.71,5.53C106,42.44,101.63,39.6,99.95,34s.35-10.48,6.33-12.28,10,1.24,11.49,6.28a14.08,14.08,0,0,1,.51,2.17L106,33.88c1,2.24,2.61,3.38,5.38,2.55a5.12,5.12,0,0,0,3.46-3.33ZM112,28.44c-.89-2.21-2.2-3.36-4.5-2.67s-2.89,2.42-2.44,4.76Z" transform="translate(-0.68)"/>
    <path class="cls-2" d="M120.19,10.26l6.19-.63,2.25,22.15,12.59-1.28.49,4.85-18.78,1.91Z" transform="translate(-0.68)"/>
    <path class="cls-2" d="M160.3,34c-1.86,1.86-4.37,3-8.28,2.66-6.69-.57-9.73-4.84-9.23-10.65S147,16.45,153.21,17s8.81,4.83,8.36,10.08a14.19,14.19,0,0,1-.33,2.21l-12.75-1.09c.11,2.46,1.17,4.11,4.06,4.35A5.12,5.12,0,0,0,157,30.71ZM156,25.3c0-2.38-.8-3.93-3.19-4.14s-3.58,1.18-4,3.52Z" transform="translate(-0.68)"/>
    <path class="cls-2" d="M173.34,40.49l.57-2.56-.07,0a6.15,6.15,0,0,1-6.15,1.4c-3.61-1-5.27-4-4.37-7.24a4.91,4.91,0,0,1,4.85-3.82,30.17,30.17,0,0,1,7.85,1.2l.3-1.09c.43-1.53-.34-2.85-2.18-3.36a3.46,3.46,0,0,0-4,1.34l-3.63-3.29c2.16-2.48,5-3.19,9.08-2.05,5.48,1.53,7.48,4.76,6.36,8.78l-3.39,12.15Zm1.52-6.91.27-1c-1.07-.23-2.36-.48-3.5-.61s-2.31,0-2.68,1.31c-.3,1.09.27,2.2,1.83,2.64A3.18,3.18,0,0,0,174.87,33.58Z" transform="translate(-0.68)"/>
    <path class="cls-2" d="M189.55,26.08l4.94,2.28-1.13,2.79.06,0c1.82-1.42,3.78-2,5.71-1.06a5.64,5.64,0,0,1,1.5,1l-2,4.43a12.39,12.39,0,0,0-1.58-.88c-2.66-1.23-4.85-.29-5.72,1.6l-4.37,9.46-5.33-2.46Z" transform="translate(-0.68)"/>
    <path class="cls-2" d="M205,33.48l4.49,3.07-1.39,2.22.06,0a6.47,6.47,0,0,1,6.39.73c3.3,2.25,4,5.86,1.81,9.07l-7.27,10.65-4.85-3.31,6.91-10.13a2.57,2.57,0,0,0-.74-3.8,3.23,3.23,0,0,0-4.76.9l-6.52,9.54-4.84-3.31Z" transform="translate(-0.68)"/>
  </g>
  <g>
    <path class="cls-3" d="M144.28,96.76l-2.14-2.31-5.27,9.85a12.07,12.07,0,0,1,1.18.85c.68.6,1.32,1.25,2,1.89a7.78,7.78,0,0,0,1,1.06,20.08,20.08,0,0,0,2,1,7.84,7.84,0,0,0-.72-4.51,5.19,5.19,0,0,1,.08-4.86C142.92,98.73,143.62,97.79,144.28,96.76Z" transform="translate(-0.68)"/>
    <path class="cls-3" d="M159.74,78a.87.87,0,0,1-.17-.5c0-1.14-.88-1.41-1.63-1.84a4.28,4.28,0,0,0-1-.44c-1.31-.35-2.62-.67-3.94-1l-.14.32c2.44,1.8,2.31,4.84,3.51,7.23A23.17,23.17,0,0,1,155,78.66c-1.28-3.68-3.37-4.8-7-4.22.71,1.09,1.33,2.17,2.08,3.15a30.54,30.54,0,0,0,8.4,7.14c1.29.81,2.52,1.52,4.1,1.16a1.68,1.68,0,0,1,.53.05c.88.1,1.75.27,2.63.29a14.6,14.6,0,0,0,2.07-.23c0-1,.25-2.1-.61-2.88-2.14-1.93-4.36-3.76-6.55-5.63-.24-.2-.5-.36-.76-.54l-.19.14a4.14,4.14,0,0,0,.5,1.3,2.58,2.58,0,0,1,.41,2.53A3.46,3.46,0,0,0,159.74,78Z" transform="translate(-0.68)"/>
    <path class="cls-3" d="M146.75,71.77a1.07,1.07,0,0,0,.76.56c1.77.14,3.56.14,5.32.34a12.37,12.37,0,0,1,3.74.89c1.6.74,3.17.51,4.79.45,1.08,0,2.16.19,3.24.16a17.09,17.09,0,0,0,2.53-.41.92.92,0,0,1,.61,0l-2.4.78a5.29,5.29,0,0,0,3.21,1.39,15.93,15.93,0,0,0,3-.44c-.48-.44-5.95-6-17.08-4.2a10.36,10.36,0,0,0-8.77-2.52A29.34,29.34,0,0,0,146.75,71.77Z" transform="translate(-0.68)"/>
    <path class="cls-3" d="M165.43,86.64l2.22,1.57C167.82,86.63,167.07,86.1,165.43,86.64Z" transform="translate(-0.68)"/>
    <path class="cls-3" d="M211.56,115.92s2.21-8.71-8.65-17.17l-.06.12s-3.56-15.52-19.93-16.62a12.35,12.35,0,0,0-11.35-6.75h0c-1.9,1-3.14,1-5.39,0a6.14,6.14,0,0,0-3-.95c1.36,2,3.51,2.1,5.46,2.65-2.23-.21-4.38-.59-6-2.42a.81.81,0,0,0-.58-.23c-1,.06-1.91.16-2.78.23,3.06,2.78,6.1,5.64,9.25,8.36a15.91,15.91,0,0,0,7.08,3.6,15.59,15.59,0,0,1-7.48-2.92,22.27,22.27,0,0,1,0,2.59,2.58,2.58,0,0,1-.19,1,1.09,1.09,0,0,0,.31,1.43,11.25,11.25,0,0,0,4.39,2.32l-.07.17-2.81-.93-.08.21a7.75,7.75,0,0,0-.84-.87c-.78-.6-1.58-1.18-2.4-1.71a8.33,8.33,0,0,0-1.66-.88,19.88,19.88,0,0,0-2.15-.53l1.14,1.54c-.66-.54-1.1-1.35-2.25-1.33l.65.69a5.23,5.23,0,0,1,1.6,3.3,1.23,1.23,0,0,0,.49.77,24.93,24.93,0,0,0,8.68,3.85,21.11,21.11,0,0,1,8.1,3.79,19.45,19.45,0,0,0,6,3.27l-.1.21c-1.2-.52-2.43-1-3.59-1.57a25.28,25.28,0,0,1-2.85-1.77,22.11,22.11,0,0,0-7.34-3.33,33.45,33.45,0,0,1-9.5-3.74L163,94.64c.46.16.88.32,1.31.46a4.22,4.22,0,0,1,2,1.28,3.26,3.26,0,0,0,1.81.6c.8.13,1.62.12,2.43.22a6.18,6.18,0,0,1,1,.3L166.52,97c0,1.13.24,2.25,1.36,2.7a15.86,15.86,0,0,0,2.89.64c-.51,0-1.22,0-1.93,0a2.72,2.72,0,0,1-2.66-2.22,2.79,2.79,0,0,0-1.33-2,2.66,2.66,0,0,0,.45,3.38,4.64,4.64,0,0,1,1.51,2.21l-2.48-2.86c-.3.67-.3.67.53,1.86a1.69,1.69,0,0,1-1-1.69c.1-1,.2-2.06.31-3.21l-1.24-.41a6.87,6.87,0,0,0,2.48,7.59,19.67,19.67,0,0,0,5.74,2.61c1.52.51,3,1.11,4.56,1.54a15.29,15.29,0,0,0,2.63.23c.88.08,1.75.21,2.63.26.5,0,1-.08,1.5-.1s.87,0,1.31,0v.2l-2,.13c1.85,1.35,3.36,3.12,5.56,3.91l-1.39-.48a3.27,3.27,0,0,1-1.36-.75,8.13,8.13,0,0,0-1.42-1,6.51,6.51,0,0,0-3.29-1.48h-.44l.62.82a2.65,2.65,0,0,0-2.8-.69c1.42,1.41,1.34,3,.55,4.83.53-3.23,0-4.39-3-5.57-1.86-.74-3.83-1.2-5.75-1.79-2.1-.65-4.25-1.26-5.84-2.87a19.24,19.24,0,0,1-2-2.91s0-.16,0-.25l-.45.51-.52-1.62-.29,0c-.49.73.6,1.91-.72,2.52a1.47,1.47,0,0,0,.23-1.86,1,1,0,0,1,.23-1c1.38-.9,1.31-2.32,1.54-3.7.62-3.73-1.15-6.16-4.12-8-1.82-1.12-3.72-2.13-5.52-3.28a42.21,42.21,0,0,1-7.08-5.7l-.64-.61a11.35,11.35,0,0,0-.22,1.59q0,2.64.15,5.28a.82.82,0,0,0,.42.53c1,.52,2,1,3,1.52a5.36,5.36,0,0,1,1.52,1.12,4.59,4.59,0,0,0,2.09,1.31c.89.33,1.75.74,2.52,1.07-.37.57.27.8.23,1.29l-1.31-1.77-.31.27.37,1.1c-.5-1-1-1.94-2.39-1.79.5,1.5,1,3,1.52,4.6a9.85,9.85,0,0,0,2.81,4.79l-.2.17-2.47-2.81-.4.59c.52-.89.06-1.67-.24-2.46-.46-1.21-.9-2.43-1.39-3.74l-.61.65c.61-1.1,0-1.64-.54-2.16a19.22,19.22,0,0,0-1.56-1.27l-.41,3.61-.35.08c.81-2.46.66-4.44-2.27-4.93-.21,1.41-.46,2.89-.64,4.37a1.07,1.07,0,0,0,.36.69,30.9,30.9,0,0,1,6,8.18c.7,1.49,1.27,3,1.9,4.55,1.46.13,3,.2,4.49.42a14,14,0,0,1,7.24,3,3.31,3.31,0,0,0,1.48.48c1,.19,2,.34,3,.47.37,0,.76,0,1.14,0a2.27,2.27,0,0,1,1.1.28h-1.71l2.84,2.68-.05.11a3.85,3.85,0,0,1-.55-.33c-.58-.5-1.11-1.07-1.73-1.51s-1.41-.82-2.12-1.23l-.16.19.12.28-2.4-.61c2.43,4.56,6.19,7.11,10.8,8.58l-.07.17c-1-.35-2.1-.66-3.11-1.07A18.52,18.52,0,0,1,164,109.4c-2-2.63-4.91-3.8-8.11-4.28-.45-.07-.91-.11-1.36-.15a3.23,3.23,0,0,0-.42,0,6.91,6.91,0,0,0,.6.41,2.65,2.65,0,0,1,1.51,2.16c.1.88.29,1.75.39,2.64-.77-1.27-.33-3.07-1.78-4.12l-.17.6a2.31,2.31,0,0,0-2.83-1.74c.26,1.76.49,3.45.79,5.13a.93.93,0,0,0,.59.54,21.63,21.63,0,0,1,3.29.87,7.64,7.64,0,0,0,3.11.86c.29,0,.57.28.85.44,0,0,0,0,0,0l-2.21-.46-.11.19c1.52,1.69,2.4,3.92,4.38,5.28l-2-1.29c-.2-1.42-3.26-4.44-4.89-4.57l0,.16h0l-2.92-.93c.25.84.4,1.47.61,2.07a8,8,0,0,0,4.26,4.57c1.69.83,3.39,1.65,5.1,2.43a4.61,4.61,0,0,0,1.27.16c1,.13,2,.28,2.93.38a6.5,6.5,0,0,0,1.44-.05c.81-.11,1.6-.16,2.09.37L167.8,121l-.07.27,5.32,4-1.5-.61-.06.35a9.94,9.94,0,0,0-6.22-3.78l.85,1.27-1.67-1.42-.14.17a24.27,24.27,0,0,1,1.63,1.91,4.12,4.12,0,0,1,.79,1.71c.17,1.31,1.13,2.13,1.76,3.14a.76.76,0,0,0,.64.17c1.27-.24,2.53-.58,3.81-.76a3,3,0,0,1,1.56.39l-2-.2-.05.21,3.4,1.67,0,.1c-.79-.31-1.6-.57-2.36-.94a4.83,4.83,0,0,0-4.25,0l-.07.24c.62.21,1.23.45,1.86.61a7.25,7.25,0,0,0,1.14.09c1.93.18,2.62.81,3.08,2.7.15.63.41,1.23.56,1.9-.21-.43-.44-.86-.63-1.3a10.58,10.58,0,0,0-.8-1.88,3.13,3.13,0,0,0-2.68-1c-.38,0-.76,0-1.14.05l1.1,3.6-.18.06-.44-1.33a7.14,7.14,0,0,0-.55-1.57,4.85,4.85,0,0,0-1.09-.94c-.5-.42-1-.8-1.48-1.26a10.31,10.31,0,0,1-.92-1.31c-.56,2.39-1.19,4.61-1.58,6.87a3.6,3.6,0,0,0,2.25,4l.67.35s0,0,0,.06a4,4,0,0,1-3.55-4.65c.19-1.28.51-2.55.76-3.82.45-2.29.54-4.54-1-6.48a26.62,26.62,0,0,0-2.06-2.05,21.12,21.12,0,0,0-1.69,2.42,2.4,2.4,0,0,0,.08,1.43c.07.3.33.56.36.94l-1.12-1.7c-.22.63-.41,1.21-.63,1.77s.14,1.14.58,1.61l-.18-.1-.37-.3a9.85,9.85,0,0,0,.14,1.13,23,23,0,0,1,.85,3.38,8.62,8.62,0,0,1-.49,2.9c.63-2.91-1-5.41-1.36-8.22-.65.5-1.25.87-.88,1.81a1.49,1.49,0,0,1-.28,1.13v-1.61c-.73.74-.23,2-1.05,2.46a12.75,12.75,0,0,1,.31-1.83,3.29,3.29,0,0,1,.76-1.35,3.91,3.91,0,0,0,1.35-2.22,4.55,4.55,0,0,1,.89-1.57c.56-.84,1.15-1.66,1.86-2.67l-6.14-2.16a15.49,15.49,0,0,1,0,2,34.5,34.5,0,0,1-.9,5.41,14.47,14.47,0,0,0-.3,7.69,10.33,10.33,0,0,1-.31,6,12.29,12.29,0,0,0,.09-5.09c-.2-.95-.43-1.89-.63-2.84a9.43,9.43,0,0,1,.28-4.84,15.84,15.84,0,0,0,.67-8.36,1.17,1.17,0,0,0-.31-.63c-.88-.7-1.78-1.36-2.67-2-.06.3-.12.74-.23,1.18-.07.27-.13.62-.32.76a2.6,2.6,0,0,0-.93,2.24l-.17-1.45c-.44.15-.87.26-1.28.44A2,2,0,0,0,147.1,122a4.17,4.17,0,0,1,.06,1.53c-.1-.55-.19-1.11-.31-1.66a2,2,0,0,1,1.28-2.73c.5-.25,1-.47,1.49-.77a4.71,4.71,0,0,0,.74-.76c-2.17-.5-3.41.79-4.68,2l1.63-2-1,.18,0-.21,4.22-.64a6.71,6.71,0,0,0,.12-3.2,33.09,33.09,0,0,1-.7-4.06,27.67,27.67,0,0,0-4.44-11.37c-.1-.15-.2-.29-.31-.43a.38.38,0,0,0-.13-.07,6.21,6.21,0,0,0-2,6.66,11,11,0,0,1,.42,4.46,8.5,8.5,0,0,0,.35,2.18l-.55-.91c-.57.55-.18.92.15,1.34l-.53-.36-.3.36s-.06-.07-.07-.11a7.6,7.6,0,0,1-.2-1.44c0-1.15-.85-1.31-1.72-1.73.82,3.1.12,6.38,1.92,9.19l-.23.1L140.9,115l-1.1.8c.42-.52,1.08-.9,1-1.71-.17-1.21-.3-2.43-.51-3.63-.07-.37-.45-.71-.47-1.07a3.21,3.21,0,0,0-1.66-2.79L137,109.77l-.2-.07a9.87,9.87,0,0,0,.64-1.67,3.1,3.1,0,0,0,0-1.7c-.21-.49-.78-.84-1.22-1.28-.52.73-.89,1.34-1.36,1.88a2.52,2.52,0,0,0-.61,2c.28,3.4,2.17,5.83,4.71,7.87,1,1.1,2,2.15,2.91,3.33s1.76,2.79,2.63,4.2a.54.54,0,0,1,0,.45c-.27-.49-.53-1-.81-1.47a24.84,24.84,0,0,0-5.81-6.64,13.65,13.65,0,0,1-4.85-6.88s-.06-.08-.14-.17a12.25,12.25,0,0,0-2.19,4.5c0,.13.16.38.31.5.79.62,1.59,1.24,2.41,1.81a10.12,10.12,0,0,0,1.1.52c.38.2.74.43,1.11.65l-.13.2-.49-.4-.1.21-1.06-.75-.19.14,1.46,5.06a4.49,4.49,0,0,1-1.12-2.38,7.52,7.52,0,0,0-.37-1.32c-.44-.91-.66-2-1.77-2.44l-.14,1.2c-.1-.84-.1-1.67-1.26-1.9a9.78,9.78,0,0,0-.16,1c0,.74-.07,1.48-.09,2.22a1.93,1.93,0,0,0,1.06,2,6.72,6.72,0,0,1,2,2.24,4.74,4.74,0,0,0,2,2c1.15.53,2.28,1.08,3.44,1.6a7.45,7.45,0,0,0,.81.18,6.86,6.86,0,0,1-2.54-.46,3.38,3.38,0,0,0-3.19.28c1,1.39,2.11,2.41,4,2.25s2.7.54,3,2.06c-.43-.44-.91-1.23-1.61-1.55a7.55,7.55,0,0,0-2.49-.22,10.24,10.24,0,0,0,1.12,2.36,5.65,5.65,0,0,0,2,1.27,3.26,3.26,0,0,0,1.36.1,3,3,0,0,1,2.41.84,10.13,10.13,0,0,1,.81.66l-2.15-1.16-.13.15.59.76c-.74-.68-1.46-1.3-2.63-.86,2.33,2.15,3.65,5.27,6.73,6.66l-.12.19L143.84,138l-.1.47a.83.83,0,0,1-.09-.12,5.62,5.62,0,0,0-.59-1.26c-.89-1.08-1.84-2.1-2.76-3.15l-.19.08.26,1.12-.08,0a4.81,4.81,0,0,0-.35-1.17,2.74,2.74,0,0,0-.93-1,16.57,16.57,0,0,0-2-.82l.88,3.17-.27.2c0-3-1.82-3.84-4.4-3.81.23,1,.55,2,.7,3a3.49,3.49,0,0,0,1.66,2.61c1.18.74,2.42,1.39,3.65,2.05,1.42.76,2.87,1.48,4.21,2.38l-8.89-4.2c0,1.71,0,3.61,0,5.52a.92.92,0,0,0,.26.58c.63.62,1.19,1.28,2.3.94a2.32,2.32,0,0,1,2.31.89,3.55,3.55,0,0,0-3.2-.44c.52,1.21,1.19,2.18,2.62,2.26,1.95.12,2.18,1,2.24,2.49-.83-2.11-1.05-2.28-3-2.24l.33,1.43A2.54,2.54,0,0,0,137,147.2c-.32-.12-.49-.62-.75-.94l-1.66-2-.32.13.1,1.2a2.53,2.53,0,0,0-.42.48c-.7,1.49-1.38,3-2.07,4.5a1.6,1.6,0,0,1-.41.51,17.82,17.82,0,0,0,1.85-11.42,13.13,13.13,0,0,0-2,1.84c-.28.38-.17,1.1-.15,1.66a3,3,0,0,0,.36.89l-.19.08-.82-2.15c-.61.84-1.6,1.46-1.19,2.77,0,.14-.32.37-.34.57a31.66,31.66,0,0,0-.18,3.51,3.73,3.73,0,0,0,.56,1.31l-.6-.48-1.11,2.53-.23-.07c1.55-2.63.58-5.53,1.06-8.28-1.29.2-1.48,1.13-1.43,2.22l-.2-.1.11-1.07-.18-.1-.66,1-.18-.1a9.07,9.07,0,0,1,.8-1.21,3.17,3.17,0,0,1,.9-.57,3.38,3.38,0,0,0,1.35-1.38,7.37,7.37,0,0,1,1.64-1.77c2.63-2.24,2.67-2.23,1.8-5.54-.46-1.77-1.06-3.5-1.6-5.25l-.27,0c-.06.24-.24.59-.15.71a2.31,2.31,0,0,1,.22,2.65c-.05.11,0,.25-.16.36a6.61,6.61,0,0,0,.21-1.53,6.58,6.58,0,0,0-.55-1.51,7.45,7.45,0,0,0-1.44,3.47c-.07.43-.11.86-.22,1.28a1.4,1.4,0,0,1-.34.75c-1.1.86-.72,1.91-.49,3a7.18,7.18,0,0,1,.08,2l-.67-4.29a14.67,14.67,0,0,0-1.69.71,2,2,0,0,0-1.07,2.58,7.63,7.63,0,0,1,.15,1.87c-.14-.7-.26-1.41-.44-2.1a2,2,0,0,1,1-2.58,9.9,9.9,0,0,1,1.15-.6,2.66,2.66,0,0,0,1.73-2.4c0-.48.13-1,.2-1.49a3.79,3.79,0,0,0-2.52.53,19,19,0,0,0-1.92,1.75,4,4,0,0,1,3.78-2.66c.62,0,.83-.28,1.05-.82a19.8,19.8,0,0,1,1.46-2.75,1.05,1.05,0,0,0,.15-1c-.43-1.21-.81-2.45-1.27-3.84l-1.71,1.53.05.24-.13-.17.08-.07-.06-.25c-1.61,1.13-1,3.21-2,4.53.21-1.11.43-2.2.62-3.29,0-.11-.12-.25-.18-.37.72-.62,1.4-1.28,2.16-1.85,1-.73,1-.69.71-1.89-.37-1.58-.69-3.16-1-4.71-1.18,1.14-2.39,2.3-3.57,3.48a.57.57,0,0,0-.09.51,9.59,9.59,0,0,1,.9,4.63l.85-.15a2.24,2.24,0,0,0-1.14,1.4c-.41,1.2-1.12,2.29-1.53,3.49a33.58,33.58,0,0,0-.83,3.49,12.1,12.1,0,0,1,1.26-5.48,7.36,7.36,0,0,0-.23-6.91,6.22,6.22,0,0,0-1.22,3.38c-.1,1.12-.14,2.24-.34,3.34a5,5,0,0,1-2.68,3.62c-1.24.66-2.48,1.33-3.78,2a9.41,9.41,0,0,1,1-.82c.6-.38,1.24-.7,1.87-1a5.72,5.72,0,0,0,3.19-4.81c.08-1,0-2,0-3l-6.67,4a7.31,7.31,0,0,1,2.49-1.92c1-.54,2-1.15,3-1.75s1.39-1.74,1.62-3c-.84.53-1.59,1-2.31,1.48a4.11,4.11,0,0,1-2.31.87c-.41,0-.82.43-1.2.71a3.09,3.09,0,0,1-.78.57L116,124.3c-1.78-1-3.16-.79-4.94.87a2.54,2.54,0,0,1,2.26-1.8,13.42,13.42,0,0,1,2.12.22,3.44,3.44,0,0,0,2.3-.17,4.4,4.4,0,0,0-3.83-1.21,15.33,15.33,0,0,1-2.7.12l3.94-.54,0-.22-1.95-.37c2.11-.32,3.39,1.26,5.22,1.89l1.51-1c.79-.53.8-.53,1.55-.12,1.56-1.68,3.1-3.38,4.69-5a4.44,4.44,0,0,0,1.18-3.73c-.53.36-1,.7-1.52,1a4.14,4.14,0,0,1-2.54.9,1.24,1.24,0,0,0-.82.32c-.6.58-1.14,1.22-1.7,1.85a6.69,6.69,0,0,1-1.34,1.27l2.94-3.59c-2.84-1.45-5-.56-6.54,2.26l-.19-.29a27.32,27.32,0,0,1,2.19-2.52,3.19,3.19,0,0,1,2.84-.46,6.84,6.84,0,0,0,3.39.21c.11,0,.22-.09.42-.18a5,5,0,0,0-4.39-1.44,8.2,8.2,0,0,1-3.35.1l4.62-.6,0-.24a8.88,8.88,0,0,0-1.5-.37c-.52,0-1.05.08-1.59,0a9.15,9.15,0,0,1,2.81.06,17.06,17.06,0,0,1,3.47,1.87c.43.27.7.31,1,0l.06,0a6.23,6.23,0,0,0,2.73-3.24,36.21,36.21,0,0,1,3.24-5.07c.66-1,1.34-2,2.12-3.1a22.65,22.65,0,0,0-3.16.6,3,3,0,0,0-1.72,2.38c-.09.37-.14.75-.21,1.12l-.24-.07,1-3.33c-1.34.52-3.16.54-3.51,2.87l-.1-1.08-2.78,3.15a3.83,3.83,0,0,1-.46.51,1.85,1.85,0,0,0-.61,2.19,1.32,1.32,0,0,1,.05.68l-.48-1.68-3,1.85-.14-.21c3.43-1.65,5-5.13,7.71-7.7-1.09,0-2-.21-2.65.81a3.85,3.85,0,0,1-1.8,1l2.08-1.45-.18-.31a15.58,15.58,0,0,0-1.4.72,2.79,2.79,0,0,1-2.85.52,3.41,3.41,0,0,0,3.09-1,3.47,3.47,0,0,1,1.61-.57c.47-.09,1,0,1.45,0a6,6,0,0,0,1.86-.55,13.79,13.79,0,0,1,4.42-1.11c.38-.07.75-.14,1.13-.19a3.15,3.15,0,0,0,2.63-1.87,30.33,30.33,0,0,0,3.16-8.65c0-.3.07-.59.12-1.06-.94.6-1.77,1.08-2.55,1.64s-.6,1.23-.54,2a2,2,0,0,1-1.92,2.45c.4-.37,1.07-.72,1.3-1.26a5.61,5.61,0,0,0,.05-2l-1.67.66.34-.22.34-.22c.29-.2.75-.37.82-.63.23-.87.92-1.22,1.57-1.67s1.35-1,2-1.52a.9.9,0,0,0,.35-.55,22.11,22.11,0,0,0-.39-5.56,22.31,22.31,0,0,0-6.13,3c.16.43.31.81.44,1.19a5.49,5.49,0,0,1-1.14,6.08,6.06,6.06,0,0,0-.38.47l.26.13c-1.49,1.25-1.77,2-2.07,5.52A8,8,0,0,1,130.78,93a13.92,13.92,0,0,0,1.15-1.89,5.36,5.36,0,0,0-.48-5,27.55,27.55,0,0,0-6.72,7.36q-.33.51-.64,1a1.84,1.84,0,0,0,.22,2.22,2.49,2.49,0,0,1,.53,1l-.91-1.12-1.16,3.87h-.12l.95-4.4-.29-.09c-.21.39-.42.77-.62,1.16-1.13,2.3-2.61,4.2-5.28,4.83a1.06,1.06,0,0,0-.53.5,12.78,12.78,0,0,0-1.89,6.22,11.61,11.61,0,0,1-2.34,7c-.56.73-.9,1.64-1.49,2.41a17.45,17.45,0,0,1,.76-1.72,16,16,0,0,0,2.46-6.51c.14-1.64.34-3.29.64-4.91a19.74,19.74,0,0,1,.91-2.72c-1.17.09-2.31.16-3.45.29a.82.82,0,0,0-.53.5,11,11,0,0,0-.42,1.94,5.31,5.31,0,0,1-.89,2.48,3.08,3.08,0,0,0-.22,1.24,11.06,11.06,0,0,1-.17,1.27.77.77,0,0,1-.57.47l.47-.89-.29,0,.31-1.39L110,108c-2,1.66-4.59,2.55-6.21,4.72l-.15-.12,1.28-1.64-.74-.15c2.23-.21,6.07-3.38,6.22-5.08l-.88.33c1.44-.64,1.08-2.2,1.5-3.36a7.55,7.55,0,0,0-7,5.45c-.31,1.28-.43,2.61-.63,3.92-.26,1.65-.66,3.25-2.39,4a18,18,0,0,1-2.17.63l-.06-.2c.21-.06.41-.13.62-.18a4,4,0,0,0,3.39-3.89c.17-1.57.3-3.14.48-4.71a13.89,13.89,0,0,1,.34-1.51c-1.25.22-2.5.34-3.68.66a2.6,2.6,0,0,0-1.71,2c-.2.72-.33,1.45-.49,2.18l-.22-.06,1.05-4c-.67.27-1.43.57-2.17.9A2,2,0,0,0,95,109.74v-.9l-2,2.17c-.36.4-.67.84-1.05,1.21-.73.73-1.4,1.46-.76,2.67l-.25,0-.25-1.14-3.33,2-.14-.21c3-1.29,4.55-4,6.53-6.29.43-.5.88-1,1.32-1.45a2.42,2.42,0,0,0-2.92,1.22l-.12-.18.74-.91-.13-.18L90.2,109c2-1.53,1.57-1.67,4.16-1.69a6.9,6.9,0,0,0,2.32-.6,41.35,41.35,0,0,1,4.49-1.12c.94-.23,1.88-.44,2.81-.7a3.48,3.48,0,0,0,.79-.48l-.07-.19c-.75,0-1.5,0-2.24,0a5.66,5.66,0,0,1-2.51-.48,4.37,4.37,0,0,0-2,.1,5.41,5.41,0,0,0-.86.24l-.05-.2,2.47-.6a3.25,3.25,0,0,0-2.13-1.92,11.81,11.81,0,0,0-2.69.07,3.37,3.37,0,0,1,4.33.47,19.6,19.6,0,0,0,1.64,1.34,3.06,3.06,0,0,0,.85.27c-.12-2.21-1.73-2.85-3.37-3.44l.11-.17,2.43.84.12-.07-1.06-1.18.08-.1a4.75,4.75,0,0,1,1.05,1c.52,1,.92,2,1.41,3.16,1.52-.28,3.13-.07,4.73-.79a31.43,31.43,0,0,1,5.19-1.47c1-.26,2.06-.38,3.06-.66A8.7,8.7,0,0,0,120.66,96c-1.56.2-3.18-.84-4.54.24l-.48.49a3,3,0,0,1,.48-.49l.58-.58a4.48,4.48,0,0,0-2.65.28,22.74,22.74,0,0,0-2.12,1c-.75.39-1.47.81-2.21,1.22a7.71,7.71,0,0,1-3.15.91c.84-.32,1.71-.59,2.52-1s1.58-.93,2.37-1.39l2.42-1.39c-.81-.62-1.56-.26-2.33.05l.83-.53h-1l0-.26a4.23,4.23,0,0,1,1.16,0,8.74,8.74,0,0,0,3.36.27,18.65,18.65,0,0,1,4,.32,1.37,1.37,0,0,0,1.69-1c.49-1.14,1.16-2.2,1.88-3.51-1.51-.22-2.95-.45-4.39-.61-.21,0-.48.25-.69.41-.64.49-1.26,1-1.92,1.47-.16.11-.45,0-.68,0l-3.55.28c1.69-.61,3.43-.17,4.92-1.2l-.37-.14,1.24-.64-.08-.3c-.8.11-1.61.19-2.41.32a14.61,14.61,0,0,0-5.4,2.59,18.26,18.26,0,0,1-9.62,2.82,2.8,2.8,0,0,1-.36,0l1.63-.43.14,0,.14,0,.14,0h.13c1.69-.52,3.42-1,5.05-1.64a23,23,0,0,0,3.18-1.95l-.11-.22c-.66,0-1.32-.07-2-.14s-1.36-.2-2-.26a2,2,0,0,0-.74.13,5.5,5.5,0,0,0-2.42,2.12l1.79-2.53c-.68.06-1.48.09-2.26.22s-1.66.16-2,1.15l.06-.58L98.48,93c-.58.32-1.13.7-1.74,1a2.93,2.93,0,0,0-1.92,2.18L95,95l-4.14.93-.07-.26c4.19-.38,7.13-3.38,10.87-5.08-1-.33-1.75-.78-2.61-.07a1.84,1.84,0,0,1-1.16.29l1.42-.65-.06-.27c-.56.11-1.11.23-1.67.32s-1.13.17-1.9.28a20.71,20.71,0,0,1,2.65-.81,4.85,4.85,0,0,1,2,.12,9.3,9.3,0,0,0,3.52.25,26.83,26.83,0,0,1,4.4.25c1.27.07,2.55.09,3.82.11a1.56,1.56,0,0,0,.72-.22,12.87,12.87,0,0,1,7.43-1.26,28.22,28.22,0,0,1,3.54.59.73.73,0,0,0,.93-.35,34.63,34.63,0,0,1,7.67-8.37c1.21-.92,2.57-1.64,3.86-2.47.24-.15.53-.37.59-.61.26-1.08.45-2.18.67-3.29-2.43.44-4.79.72-7.05,1.34a4.06,4.06,0,0,0-2.53,3.07c-.37,1.24-.6,2.52-.92,3.78a2.82,2.82,0,0,1-.56,1.08c.15-.49.35-1,.45-1.47.18-.85.32-1.7.43-2.56a7.05,7.05,0,0,1,1.69-3.78,10.79,10.79,0,0,0-5.6,2.46c-.11.09-.29.25-.27.34.26.95-.33,1.66-.62,2.46a4.19,4.19,0,0,0-.13.81l-.19,0,.78-2.84-.28-.15c-.76.8-1.51,1.62-2.29,2.41-1.81,1.86-3.59,3.75-5.47,5.54a11.32,11.32,0,0,1-6.06,3c.07-.07.1-.12.15-.13a17.32,17.32,0,0,0,8.19-6c1.89-2.33,3.83-4.62,5.71-6.88-.78,0-1.7,0-2.63,0a.63.63,0,0,0-.43.25,6.58,6.58,0,0,1-4.43,2.73c-.1,0-.19.08-.28.1a.34.34,0,0,1-.24,0c1.68-.63,3.48-1.08,4.29-3-.63.29-1.28.55-1.89.87s-1.26.77-1.92,1.11a3.8,3.8,0,0,1-2.83.22,13.52,13.52,0,0,1-1.89-.62l1.88.41a5.05,5.05,0,0,0,4.75-1.63l-3.8-.85,0-.11c.69.14,1.38.27,2.07.44a4.27,4.27,0,0,0,3-.11,4.68,4.68,0,0,1,1.64-.27c.66,0,1.33,0,2,0a5.78,5.78,0,0,0,3.11-.88,9.11,9.11,0,0,1,4.34-1.35c2-.19,3.7-1.25,5.47-2.06a1.15,1.15,0,0,0,.48-.73c.19-.85.41-1.7.61-2.55a12.83,12.83,0,0,0-7.42,1.55s-4.42-2-7.79,1.17c0,0-7.73-1.35-11.53,4.72v-.06s-7.3.06-8.71,6.81V83a9.94,9.94,0,0,0-10.55,7,10.79,10.79,0,0,0-6.5,10.55s-6.87,2-6.19,11.35c0,0-4,2.27-3.5,8.53,0,0-5,3.07-2.09,9.32,0,0-3.62,8.16,5.34,11.1l-.12.06a15.06,15.06,0,0,0-3.25,12.82,14.72,14.72,0,0,0,8.28,10.36s.55,17.85,22.54,13.16a133.73,133.73,0,0,1-1.15,31.37s8.92,1.15,8.92,1.15-1.3-17.22,7.47-33.59a10.47,10.47,0,0,0,5.4-7.3s9.32-2.21,11.16-9.94l.06.12s8,11.65,26.19,7.42,16.38-20.85,16.38-20.85,18.58,13.92,32.14-1.47S211.56,115.92,211.56,115.92Z" transform="translate(-0.68)"/>
    <path class="cls-3" d="M135.82,125.25c-1.66-.53-2.55-1.82-3.42-3.21a8.66,8.66,0,0,0-1.79-1.62l-.26.2c.25,1.19.49,2.38.74,3.57,0,.12.07.3.16.33,1.09.42,1.89,1.83,3.37,1A3.52,3.52,0,0,1,135.82,125.25Z" transform="translate(-0.68)"/>
    <path class="cls-3" d="M160.23,98.17l.78,1.05.24.32-.18-1.23-.12-.81Z" transform="translate(-0.68)"/>
    <path class="cls-3" d="M132.31,128.57c.15.51.28,1,.46,1.54a.76.76,0,0,0,.41.46c1.47.32,2.95.59,4.6.91a15.27,15.27,0,0,0-.81-1.71c-.22-.35-.54-.77-.9-.86a4,4,0,0,1-1.88-1.23c-.77-.76-1.62-1.44-2.43-2.15l-.26.18C131.77,126.66,132,127.62,132.31,128.57Z" transform="translate(-0.68)"/>
  </g>
  <g>
    <path class="cls-2" d="M43,218.53l2.2.32a6,6,0,0,0,1.44,5.06c1.86,2.15,3.52,2.29,4.82,1.16s.74-2.77-.49-5.23c-1.32-2.62-2.5-5.29,0-7.45,2.25-1.95,5.25-1.49,7.71,1.36A7.26,7.26,0,0,1,60.55,220l-2.18-.37A5,5,0,0,0,57.21,215c-1.62-1.88-3.34-2.05-4.55-1-1.39,1.2-.64,2.71.53,5.13,1.34,2.78,2.45,5.4,0,7.54-2.3,2-5.34,1.56-8-1.47A8.14,8.14,0,0,1,43,218.53Z" transform="translate(-0.68)"/>
    <path class="cls-2" d="M55.73,227.58c2.42-2.61,5.85-3.19,8.56-.68a5.16,5.16,0,0,1,1.62,5.34l-2-.46a3.35,3.35,0,0,0-.9-3.58c-1.72-1.6-4-1-5.69.81s-2.11,4.09-.25,5.81a3.3,3.3,0,0,0,3.62.7l.58,1.85a5.21,5.21,0,0,1-5.48-1.26C53.09,233.59,53.33,230.17,55.73,227.58Z" transform="translate(-0.68)"/>
    <path class="cls-2" d="M61.79,240.93l7.49-9.41,1.66,1.32-7.49,9.41Zm10.64-13.51,1.8,1.44-1.44,1.8L71,229.22Z" transform="translate(-0.68)"/>
    <path class="cls-2" d="M75.83,248.94A5.75,5.75,0,0,1,71,248c-3.14-2.12-3.52-5.38-1.41-8.52s5.28-4,8.16-2,3,5.11,1.11,7.83a10.72,10.72,0,0,1-.75,1l-7.2-4.87c-1.09,2-.74,3.85,1.12,5.11a3.57,3.57,0,0,0,3.34.5Zm1.56-5.27c1-1.71,1.05-3.56-.71-4.75s-3.52-.54-4.82,1Z" transform="translate(-0.68)"/>
    <path class="cls-2" d="M84.08,241.86l1.83,1-.78,1.59,0,0a4.42,4.42,0,0,1,4.39,0,4,4,0,0,1,1.8,5.69l-3.73,7.14-1.88-1,3.54-6.77a2.58,2.58,0,0,0-1.12-3.75,3.12,3.12,0,0,0-4.43,1.37L80.4,253.5l-1.88-1Z" transform="translate(-0.68)"/>
    <path class="cls-2" d="M94.71,247.26l2.22.91,1.44-3.52,2,.81L98.89,249l2.67,1.1-.67,1.64-2.67-1.1-2.5,6.09c-.54,1.33-.44,2.07,1,2.67a5,5,0,0,0,.9.27l-.65,1.6a7.05,7.05,0,0,1-1.63-.45c-2.11-.87-2.61-2.42-1.8-4.39l2.7-6.59L94,248.9Z" transform="translate(-0.68)"/>
    <path class="cls-2" d="M99.79,262.16l3.89-11.38,2,.69-3.89,11.38Zm5.48-16.3,2.18.75-.75,2.18-2.18-.75Z" transform="translate(-0.68)"/>
    <path class="cls-2" d="M112.59,265.94l.39-1.7h0a4,4,0,0,1-4,1,3.56,3.56,0,0,1-2.85-4.48,3.05,3.05,0,0,1,3-2.43,21.58,21.58,0,0,1,5.22.74l.27-1a2.35,2.35,0,0,0-2-2.92,2.65,2.65,0,0,0-3.14,1.06l-1.5-1.26c1.12-1.58,3-2.06,5.15-1.52,2.78.71,4.18,2.62,3.53,5.16l-2,7.89Zm1.16-4.6.17-.67c-.79-.18-2-.4-3-.53-1.37-.17-2.44,0-2.75,1.14s.36,2,1.71,2.36A3.12,3.12,0,0,0,113.75,261.33Z" transform="translate(-0.68)"/>
    <path class="cls-2" d="M133.47,251.82c3.5.3,6,2.52,5.68,6s-3.2,5.34-6.7,5l-4.44-.38-.52,6-2.25-.19,1.47-17.13Zm-.7,9.13c2.16.19,3.87-.88,4.08-3.24s-1.34-3.73-3.46-3.92l-4.6-.4-.62,7.16Z" transform="translate(-0.68)"/>
    <path class="cls-2" d="M140.57,263.49c-.12-3.49,1.93-6.34,5.69-6.47s6,2.62,6.1,6.06-1.89,6.32-5.67,6.45S140.69,267,140.57,263.49Zm2.15-.07c.08,2.37,1.41,4.39,3.89,4.3s3.69-2.19,3.61-4.56-1.43-4.41-3.91-4.32S142.64,261,142.72,263.41Z" transform="translate(-0.68)"/>
    <path class="cls-2" d="M153,256.9l2.38-.3-.48-3.78,2.11-.27.48,3.78,2.87-.36.22,1.76-2.87.36.83,6.53c.18,1.42.64,2,2.19,1.82a5,5,0,0,0,.92-.21l.22,1.71a7.07,7.07,0,0,1-1.64.41c-2.27.29-3.47-.83-3.73-2.94l-.89-7.06-2.38.3Z" transform="translate(-0.68)"/>
    <path class="cls-2" d="M174,263.7a5.75,5.75,0,0,1-4,2.87c-3.7.8-6.33-1.17-7.13-4.87-.77-3.54.77-6.56,4.16-7.3s5.73,1.39,6.43,4.6a10.79,10.79,0,0,1,.2,1.22l-8.49,1.85c.7,2.18,2.28,3.19,4.46,2.72a3.57,3.57,0,0,0,2.67-2.07Zm-2.73-4.77c-.55-1.9-1.85-3.22-3.92-2.77s-2.83,2.17-2.6,4.19Z" transform="translate(-0.68)"/>
    <path class="cls-2" d="M174.61,252.86l2-.66.61,1.66h0a4.42,4.42,0,0,1,3-3.16,4,4,0,0,1,5.36,2.62l2.59,7.63-2,.68-2.45-7.23a2.58,2.58,0,0,0-3.49-1.77,3.12,3.12,0,0,0-2.07,4.15l2.3,6.78-2,.68Z" transform="translate(-0.68)"/>
    <path class="cls-2" d="M185.85,248.89l2.19-1-1.55-3.48,1.94-.87L190,247l2.64-1.18.72,1.61-2.64,1.18,2.69,6c.58,1.31,1.2,1.75,2.63,1.11a5,5,0,0,0,.82-.46l.7,1.57a7,7,0,0,1-1.45.87c-2.08.93-3.56.22-4.43-1.73l-2.91-6.5-2.19,1Z" transform="translate(-0.68)"/>
    <path class="cls-2" d="M192.13,240.29l2-1.06,1.06,2-2,1.06Zm8,15.21-5.55-10.67,1.89-1L202,254.52Z" transform="translate(-0.68)"/>
    <path class="cls-2" d="M211.7,248.85l-1-1.46,0,0a4,4,0,0,1-2,3.61,3.56,3.56,0,0,1-5.2-1,3.05,3.05,0,0,1,.33-3.87,21.63,21.63,0,0,1,4.14-3.26l-.57-.91a2.35,2.35,0,0,0-3.49-.57,2.65,2.65,0,0,0-1.4,3l-2,.21c-.37-1.91.6-3.61,2.46-4.77,2.43-1.51,4.78-1.21,6.17,1l4.31,6.92Zm-2.53-4-.37-.59c-.67.44-1.69,1.18-2.47,1.83-1.06.87-1.72,1.73-1.07,2.77s1.7,1.13,2.88.4A3.12,3.12,0,0,0,209.18,244.83Z" transform="translate(-0.68)"/>
    <path class="cls-2" d="M222.12,241.41l-11.26-13,8.34-7.23,1.29,1.49-6.65,5.76,3.67,4.23,5.82-5,1.28,1.47-5.82,5,3.74,4.31,6.77-5.87,1.29,1.49Z" transform="translate(-0.68)"/>
    <path class="cls-2" d="M231.16,231.27l-.18-1.94a5.36,5.36,0,0,0,3.68-1.78c1.3-1.39,1.41-2.54.66-3.24s-1.86-.08-3.54,1.11c-1.9,1.32-3.78,2.32-5.49.73-1.51-1.4-1.57-3.67.56-6a6.6,6.6,0,0,1,4.45-2.25l.2,1.93a5,5,0,0,0-3.38,1.59c-1.15,1.23-1.2,2.34-.53,3s1.73.14,3.48-1.07,3.78-2.42,5.53-.78,1.56,3.84-.68,6.25A7,7,0,0,1,231.16,231.27Z" transform="translate(-0.68)"/>
    <path class="cls-2" d="M230.89,216.09l1.48-1.88-3-2.35,1.31-1.67,3,2.35,1.79-2.27,1.39,1.09-1.78,2.27,5.17,4.07c1.13.89,1.87,1,2.84-.24a5.07,5.07,0,0,0,.51-.79l1.35,1.07a7,7,0,0,1-.88,1.44c-1.41,1.8-3,1.85-4.72.53l-5.6-4.4-1.48,1.88Z" transform="translate(-0.68)"/>
  </g>
  <circle class="cls-4" cx="21.23" cy="141.51" r="5.66"/>
  <circle class="cls-4" cx="261.36" cy="141.51" r="5.66"/>
</svg>
